<?xml version="1.0" encoding="iso-8859-1"?>
<!-- Generator: Adobe Illustrator 19.0.0, SVG Export Plug-In . SVG Version: 6.00 Build 0)  -->
<svg xmlns="http://www.w3.org/2000/svg" xmlns:xlink="http://www.w3.org/1999/xlink" version="1.1" id="Layer_1" x="0px" y="0px" viewBox="0 0 512.051 512.051" style="enable-background:new 0 0 512.051 512.051;" xml:space="preserve" width="512" height="512">
<g>
	<rect x="148.576" y="57.059" style="fill:#957856;" width="214.899" height="38.751"/>
	<rect x="159.271" y="95.81" style="fill:#6B563E;" width="193.509" height="117.031"/>
	<rect x="322.78" y="95.81" style="fill:#544232;" width="30" height="117.031"/>
	<rect x="34.632" y="358.131" style="fill:#6B563E;" width="442.786" height="48.43"/>
	<rect x="79.513" y="261.271" style="fill:#6B563E;" width="353.026" height="48.43"/>
	<rect x="447.418" y="358.131" style="fill:#544232;" width="30" height="48.43"/>
	<rect x="402.538" y="261.271" style="fill:#544232;" width="30" height="48.43"/>
	<rect x="7.5" y="406.562" style="fill:#957856;" width="497.051" height="48.43"/>
	<rect x="56.586" y="309.701" style="fill:#957856;" width="398.88" height="48.43"/>
	<rect x="108.064" y="212.841" style="fill:#957856;" width="295.924" height="48.43"/>
	<rect x="333.475" y="57.059" style="fill:#806749;" width="30" height="38.751"/>
	<rect x="474.551" y="406.562" style="fill:#806749;" width="30" height="48.43"/>
	<rect x="425.465" y="309.701" style="fill:#806749;" width="30" height="48.43"/>
	<rect x="373.987" y="212.841" style="fill:#806749;" width="30" height="48.43"/>
	<rect x="218.538" y="142.678" style="fill:#3E3D42;" width="74.974" height="70.163"/>
	<rect x="263.512" y="142.678" style="fill:#2D2D30;" width="30" height="70.163"/>
	<path d="M504.551,399.062h-19.633v-40.931c0-4.142-3.357-7.5-7.5-7.5h-14.452v-40.93c0-4.143-3.357-7.5-7.5-7.5h-15.428v-40.931   c0-4.143-3.358-7.5-7.5-7.5h-21.051v-40.93c0-4.143-3.357-7.5-7.5-7.5H360.28V103.31h3.194c4.143,0,7.5-3.357,7.5-7.5V57.059   c0-4.143-3.357-7.5-7.5-7.5H148.576c-4.142,0-7.5,3.357-7.5,7.5V95.81c0,4.143,3.358,7.5,7.5,7.5h3.195v102.031h-43.708   c-4.142,0-7.5,3.357-7.5,7.5v40.93H79.513c-4.142,0-7.5,3.357-7.5,7.5v40.931H56.585c-4.142,0-7.5,3.357-7.5,7.5v40.93H34.632   c-4.142,0-7.5,3.358-7.5,7.5v40.931H7.5c-4.142,0-7.5,3.357-7.5,7.5v48.43c0,4.143,3.358,7.5,7.5,7.5h497.051   c4.143,0,7.5-3.357,7.5-7.5v-48.43C512.051,402.419,508.693,399.062,504.551,399.062z M156.076,64.559h199.899V88.31h-3.194   H159.271h-3.195V64.559z M166.771,103.31H345.28v102.031h-44.267v-62.664c0-4.143-3.358-7.5-7.5-7.5h-74.975   c-4.142,0-7.5,3.357-7.5,7.5v62.664h-44.267V103.31z M286.013,205.341h-59.975v-55.164h59.975V205.341z M64.085,317.202h15.427   h249.286c4.143,0,7.5-3.358,7.5-7.5c0-4.143-3.357-7.5-7.5-7.5H87.013v-33.431h21.051h44.757c4.142,0,7.5-3.357,7.5-7.5   c0-4.143-3.358-7.5-7.5-7.5h-37.257v-33.43h43.708h59.267h74.975h59.268h43.707v33.43H182.821h-0.001c-4.142,0-7.5,3.357-7.5,7.5   c0,4.143,3.358,7.5,7.5,7.5h0.001h221.167h21.051v33.431h-66.239h-0.001c-4.143,0-7.5,3.357-7.5,7.5c0,4.142,3.357,7.5,7.5,7.5   h0.001h73.739h15.428v33.43H64.085V317.202z M497.051,447.492H15v-33.43h19.632h118.189c4.142,0,7.5-3.357,7.5-7.5   c0-4.143-3.358-7.5-7.5-7.5H42.132v-33.431h14.453h398.88h14.452v33.431H182.821h-0.001c-4.142,0-7.5,3.357-7.5,7.5   c0,4.143,3.358,7.5,7.5,7.5h0.001h294.597h19.633V447.492z"/>
</g>















</svg>
