<?xml version="1.0" encoding="iso-8859-1"?>
<!-- Generator: Adobe Illustrator 19.0.0, SVG Export Plug-In . SVG Version: 6.00 Build 0)  -->
<svg version="1.1" id="Capa_1" xmlns="http://www.w3.org/2000/svg" xmlns:xlink="http://www.w3.org/1999/xlink" x="0px" y="0px"
	 viewBox="0 0 512 512" style="enable-background:new 0 0 512 512;" xml:space="preserve">
<path style="fill:#4E4C58;" d="M219.136,419.669v-80.233c0-20.399,16.595-36.996,36.995-36.996c9.883,0,19.169,3.849,26.147,10.839
	c6.988,6.975,10.837,16.266,10.837,26.156v80.233L219.136,419.669L219.136,419.669z"/>
<path style="fill:#C43341;" d="M165.798,137.226l4.408-3.569c11.931-9.657,18.772-23.989,18.772-39.32v-2.008h133.963v2.008
	c0,15.331,6.842,29.663,18.772,39.32l4.408,3.569H165.798z"/>
<path style="fill:#F1444A;" d="M136.383,178.115v-33.19h2.008c11.558,0,22.857-4.001,31.814-11.268l0.553-0.448h170.404l0.553,0.448
	c8.958,7.266,20.257,11.268,31.814,11.268h2.008v33.19H136.383z"/>
<g>
	<rect x="174.793" y="174.1" style="fill:#FCD681;" width="83.175" height="50.588"/>
	<rect x="253.952" y="174.1" style="fill:#FCD681;" width="83.165" height="50.588"/>
</g>
<path style="fill:#C43341;" d="M42.386,265.577l-1.903-2.457L42,261.884c11.837-9.655,18.627-23.946,18.627-39.204v-2.008h390.746
	v2.008c0,15.345,6.845,29.676,18.779,39.319l1.736,1.402l-2.166,2.166l-0.841,0.01L42.386,265.577L42.386,265.577z"/>
<path style="fill:#F1444A;" d="M8.032,306.457v-33.19h2.008c11.637,0,22.987-4.042,31.958-11.382l1.596-1.306l0.761,0.983h423.696
	l0.692-0.692l1.415,1.131c8.945,7.265,20.24,11.267,31.804,11.267h2.008v33.19H8.032V306.457z"/>
<rect x="377.033" y="302.441" style="fill:#FAC870;" width="88.526" height="50.588"/>
<path style="fill:#FCD681;" d="M289.1,353.029v-13.593c0-8.816-3.431-17.097-9.661-23.317c-6.222-6.231-14.499-9.663-23.308-9.663
	v-4.016h124.918v50.589L289.1,353.029L289.1,353.029z"/>
<polygon style="fill:#ECECED;" points="289.1,419.669 289.1,349.013 487.48,349.013 504.51,419.669 "/>
<path style="fill:#FCD681;" d="M131.072,353.029v-50.588h125.059v4.016c-18.184,0-32.979,14.794-32.979,32.98v13.593h-92.08V353.029
	z"/>
<rect x="46.442" y="302.441" style="fill:#FAC870;" width="88.646" height="50.588"/>
<polygon style="fill:#ECECED;" points="7.491,419.669 24.521,349.013 223.152,349.013 223.152,419.669 "/>
<path d="M501.961,314.488c5.544,0,10.039-4.496,10.039-10.039v-29.174c0-5.544-4.496-10.039-10.039-10.039
	c-9.867,0-19.113-3.275-26.76-9.485c-10.039-8.111-15.796-20.165-15.796-33.071c0-5.544-4.496-10.039-10.039-10.039H345.149v-26.493
	h28.382c5.544,0,10.039-4.496,10.039-10.039v-29.174c0-5.544-4.496-10.039-10.039-10.039c-9.863,0-19.115-3.276-26.763-9.479
	c-10.037-8.126-15.794-20.182-15.794-33.077c0-5.544-4.496-10.039-10.039-10.039H190.986c-5.544,0-10.039,4.496-10.039,10.039
	c0,12.896-5.756,24.951-15.802,33.083c-7.64,6.198-16.892,9.474-26.755,9.474c-5.544,0-10.039,4.496-10.039,10.039v29.174
	c0,5.544,4.496,10.039,10.039,10.039h28.372v26.493H62.635c-5.544,0-10.039,4.496-10.039,10.039c0,12.836-5.711,24.857-15.684,32.99
	c-7.539,6.167-17.083,9.565-26.872,9.565C4.496,265.236,0,269.731,0,275.275v29.174c0,5.544,4.496,10.039,10.039,10.039H38.41
	v26.494H26.102c-4.638,0-8.673,3.177-9.76,7.687L0.279,415.309c-0.721,2.991-0.03,6.148,1.872,8.564
	c1.903,2.416,4.811,3.828,7.887,3.828h211.105h69.962h210.856c3.076,0,5.983-1.41,7.887-3.828c1.903-2.416,2.593-5.574,1.872-8.564
	l-16.063-66.639c-1.087-4.51-5.122-7.687-9.76-7.687h-12.308v-26.494H501.961z M265.999,212.64v-26.493h59.071v26.493H265.999z
	 M311.695,104.377c1.185,7.362,3.672,14.39,7.307,20.802H192.919c3.634-6.412,6.122-13.44,7.308-20.802H311.695z M148.43,156.159
	c9.5-1.55,18.573-5.283,26.416-10.901h162.23c7.846,5.62,16.916,9.351,26.415,10.901v9.91h-28.382H176.801H148.43V156.159z
	 M186.84,186.147h59.081v26.493H186.84L186.84,186.147L186.84,186.147z M440.126,232.719c1.185,7.369,3.673,14.4,7.309,20.811
	H64.561c3.637-6.416,6.126-13.449,7.313-20.811H440.126z M20.079,284.501c9.507-1.548,18.576-5.275,26.411-10.893h419.036
	c7.837,5.615,16.9,9.342,26.396,10.892v9.91h-28.371H48.45H20.079V284.501z M301.147,340.982v-1.546
	c0-9.019-2.631-17.629-7.525-24.948h75.379v26.494L301.147,340.982L301.147,340.982z M211.105,339.436v1.546h-67.986v-26.493h75.552
	C213.896,321.634,211.105,330.215,211.105,339.436z M58.489,314.488h64.552v26.494H58.489
	C58.489,340.983,58.489,314.488,58.489,314.488z M34.009,361.06h177.096v46.562H22.785L34.009,361.06z M231.183,339.436
	c0-13.757,11.191-24.948,24.947-24.948c6.661,0,12.919,2.594,17.633,7.316c4.709,4.702,7.304,10.964,7.304,17.632v68.186h-49.884
	V339.436z M489.215,407.622H301.147V361.06h176.845L489.215,407.622z M389.08,340.982v-26.493h64.433v26.494H389.08V340.982z"/>
<path d="M451.323,374.451c-12.919,0-12.941,20.078,0,20.078C464.243,394.53,464.264,374.451,451.323,374.451z"/>
<path d="M418.528,374.152h-55.55c-5.544,0-10.039,4.496-10.039,10.039s4.496,10.039,10.039,10.039h55.55
	c5.544,0,10.039-4.496,10.039-10.039S424.072,374.152,418.528,374.152z"/>
<g>
</g>
<g>
</g>
<g>
</g>
<g>
</g>
<g>
</g>
<g>
</g>
<g>
</g>
<g>
</g>
<g>
</g>
<g>
</g>
<g>
</g>
<g>
</g>
<g>
</g>
<g>
</g>
<g>
</g>
</svg>
